<?xml version="1.0" encoding="UTF-8"?>
<svg width="27px" height="25px" viewBox="0 0 27 25" version="1.1" xmlns="http://www.w3.org/2000/svg" xmlns:xlink="http://www.w3.org/1999/xlink">
    <!-- Generator: Sketch 40.3 (33839) - http://www.bohemiancoding.com/sketch -->
    <title>Contact Icon Copy 3</title>
    <desc>Created with Sketch.</desc>
    <defs></defs>
    <g id="Use-Cases" stroke="none" stroke-width="1" fill="none" fill-rule="evenodd" stroke-linecap="round" stroke-linejoin="round">
        <g id="Media-&amp;-Digital-Assets-Overview-Copy" transform="translate(-1135.000000, -30.000000)" stroke="#B3B4B4" stroke-width="2">
            <g id="Contact-Icon-Copy-3" transform="translate(1136.000000, 31.000000)">
                <path d="M15.1041667,0.520833333 L4.6875,0.520833333 C2.38645833,0.520833333 0.520833333,2.38645833 0.520833333,4.6875 L0.520833333,8.85416667 C0.520833333,11.15625 2.38645833,13.0208333 4.6875,13.0208333 L5.72916667,13.0208333 L5.72916667,17.1875 L10.4166667,13.0208333 L15.1041667,13.0208333 C17.4052083,13.0208333 19.2708333,11.15625 19.2708333,8.85416667 L19.2708333,4.6875 C19.2708333,2.38645833 17.4052083,0.520833333 15.1041667,0.520833333 L15.1041667,0.520833333 Z" id="Stroke-5883"></path>
                <path d="M11.9791667,16.6666667 C11.9791667,18.1052083 13.1447917,19.2708333 14.5833333,19.2708333 L17.1875,19.2708333 L20.3125,22.3958333 L20.3125,19.2708333 L21.875,19.2708333 C23.3135417,19.2708333 24.4791667,18.1052083 24.4791667,16.6666667 L24.4791667,14.5833333 C24.4791667,13.1447917 23.3135417,11.9791667 21.875,11.9791667" id="Stroke-5884"></path>
            </g>
        </g>
    </g>
</svg>