<svg xmlns="http://www.w3.org/2000/svg" viewBox="0 0 27.25 30.44"><title>notif</title><path d="M6392-3449.23H6401a1,1,0,0,0,.83-1.59,18.18,18.18,0,0,1-3.56-10.83v-.33a9.38,9.38,0,0,0-8.07-9.28v-1.9a1.36,1.36,0,0,0-1.24-1.38,1.31,1.31,0,0,0-1.38,1.31v2a9.37,9.37,0,0,0-8.06,9.28v.33a18.19,18.19,0,0,1-3.57,10.83,1,1,0,0,0,.83,1.59h9.06m-.14.94a3.18,3.18,0,0,0,3.19,3.18,3.18,3.18,0,0,0,3.19-3.18,3.24,3.24,0,0,0-.14-.94h-6.1a3.24,3.24,0,0,0-.14.94" transform="translate(-6375.27 3475.04)" style="fill:#fff"/><path d="M6388.9-3444.61a3.69,3.69,0,0,1-3.69-3.68,3.15,3.15,0,0,1,0-.44h-8.45a1.5,1.5,0,0,1-1.35-.83,1.49,1.49,0,0,1,.12-1.56,17.79,17.79,0,0,0,3.47-10.53v-.33a9.91,9.91,0,0,1,8.06-9.71v-1.54a1.81,1.81,0,0,1,.56-1.32,1.87,1.87,0,0,1,1.35-.49,1.85,1.85,0,0,1,1.71,1.88v1.47a9.92,9.92,0,0,1,8.07,9.71v.33a17.78,17.78,0,0,0,3.46,10.53,1.49,1.49,0,0,1,.12,1.56,1.5,1.5,0,0,1-1.35.83h-8.45a3.15,3.15,0,0,1,0,.44A3.69,3.69,0,0,1,6388.9-3444.61Zm-2.65-4.12a2.12,2.12,0,0,0,0,.44,2.69,2.69,0,0,0,2.69,2.68,2.69,2.69,0,0,0,2.69-2.68,2.12,2.12,0,0,0,0-.44Zm5.7-1H6401a.52.52,0,0,0,.46-.28.48.48,0,0,0,0-.51,18.87,18.87,0,0,1-3.65-11.13v-.33a8.92,8.92,0,0,0-7.64-8.79.5.5,0,0,1-.43-.49v-1.9a.86.86,0,0,0-.77-.88.82.82,0,0,0-.6.22.8.8,0,0,0-.25.59v2a.5.5,0,0,1-.43.49A8.91,8.91,0,0,0,6380-3462v.33a18.88,18.88,0,0,1-3.66,11.13.48.48,0,0,0,0,.51.52.52,0,0,0,.46.28Z" transform="translate(-6375.27 3475.04)"/><path d="M6397.24-3465.22a4,4,0,0,0,4-4,4,4,0,0,0-4-4,4,4,0,0,0-4,4,4,4,0,0,0,4,4" transform="translate(-6375.27 3475.04)" style="fill:#f04"/></svg>