<?xml version="1.0" encoding="UTF-8"?>
<svg width="981px" height="736px" viewBox="0 0 981 736" version="1.1" xmlns="http://www.w3.org/2000/svg" xmlns:xlink="http://www.w3.org/1999/xlink">
    <!-- Generator: sketchtool 41.2 (35397) - http://www.bohemiancoding.com/sketch -->
    <title>5A9EB5DD-1684-4586-8D66-5D348434FDD2</title>
    <desc>Created with sketchtool.</desc>
    <defs></defs>
    <g id="Doc-Center-V2" stroke="none" stroke-width="1" fill="none" fill-rule="evenodd" opacity="0.1">
        <g id="V2-/-DocCenter---Section" transform="translate(-431.000000, -369.000000)">
            <g id="X-GRID-Copy" transform="translate(432.000000, 369.000000)">
                <g id="Group-9" transform="translate(0.000000, 0.215800)" stroke-width="0.953" stroke="#1C9EC4">
                    <polygon id="Stroke-1" points="0.109384198 122.907007 122.446975 122.907007 61.2918524 61.7600116"></polygon>
                    <polygon id="Stroke-3" points="0.109384198 0.609923382 0.109384198 122.906791 61.1472062 61.7741825"></polygon>
                    <polygon id="Stroke-5" points="122.446903 0.609923382 61.4018842 61.7741825 122.446903 122.906791"></polygon>
                    <polygon id="Stroke-7" points="0.109384198 0.609923382 61.2918524 61.7605151 122.446975 0.609923382"></polygon>
                </g>
                <polygon id="Stroke-10" stroke="#1C9EC4" stroke-width="0.953" points="183.636351 184.269586 122.446687 245.409388 244.784277 245.409388"></polygon>
                <polygon id="Stroke-11" stroke="#1C9EC4" stroke-width="0.953" points="183.491921 184.28685 122.446903 123.122591 122.446903 245.409388"></polygon>
                <polygon id="Stroke-12" stroke="#1C9EC4" stroke-width="0.953" points="183.753363 184.28685 244.784709 123.122591 244.784709 245.409388"></polygon>
                <polygon id="Stroke-13" stroke="#1C9EC4" stroke-width="0.953" points="183.636351 184.269586 122.446687 123.122591 244.784277 123.122591"></polygon>
                <polygon id="Stroke-14" stroke="#1C9EC4" stroke-width="0.953" points="367.115247 123.122807 489.452837 123.122807 428.276845 61.9758118"></polygon>
                <g id="Group-21" transform="translate(367.012771, 0.215800)" stroke-width="0.953" stroke="#1C9EC4">
                    <polygon id="Stroke-15" points="122.439994 0.62020986 61.3949758 61.7736789 122.439994 122.907007"></polygon>
                    <polygon id="Stroke-17" points="0.102475723 0.613376186 0.102475723 122.907366 61.1539707 61.7740386"></polygon>
                    <polygon id="Stroke-19" points="0.102475723 0.613376186 61.2640745 61.7603713 122.440066 0.620569527"></polygon>
                </g>
                <polygon id="Stroke-22" stroke="#1C9EC4" stroke-width="0.953" points="305.932707 184.269586 367.128848 245.409388 244.784781 245.409388"></polygon>
                <polygon id="Stroke-23" stroke="#1C9EC4" stroke-width="0.953" points="306.084045 184.28685 367.129064 123.122591 367.129064 245.409388"></polygon>
                <polygon id="Stroke-24" stroke="#1C9EC4" stroke-width="0.953" points="305.829511 184.28685 244.784493 123.122591 244.784493 245.409388"></polygon>
                <polygon id="Stroke-25" stroke="#1C9EC4" stroke-width="0.953" points="305.932707 184.269586 367.128848 123.122591 244.784781 123.122591"></polygon>
                <g id="Group-30" transform="translate(0.000000, 367.076191)" stroke-width="0.953" stroke="#1C9EC4">
                    <polygon id="Stroke-26" points="0.109384198 0.613304253 61.2918524 61.7602993 122.446975 0.613304253"></polygon>
                    <polygon id="Stroke-28" points="0.109384198 122.906935 61.1472062 61.7397983 0.109384198 0.61366392"></polygon>
                </g>
                <polygon id="Stroke-31" stroke="#1C9EC4" stroke-width="0.953" points="61.4019562 428.815701 122.446975 489.982838 122.446975 367.689567"></polygon>
                <polygon id="Stroke-32" stroke="#1C9EC4" stroke-width="0.953" points="0.109384198 489.983125 122.446975 489.983125 61.2918524 428.83613"></polygon>
                <polygon id="Stroke-34" stroke="#1C9EC4" stroke-width="0.953" points="183.636351 306.546097 122.446687 245.402698 244.784277 245.409891"></polygon>
                <polygon id="Stroke-35" stroke="#1C9EC4" stroke-width="0.953" points="183.491921 306.522071 122.446903 367.689207 122.446903 245.40241"></polygon>
                <polygon id="Stroke-36" stroke="#1C9EC4" stroke-width="0.953" points="183.753363 306.522071 244.784709 367.689207 244.784709 245.409604"></polygon>
                <polygon id="Stroke-37" stroke="#1C9EC4" stroke-width="0.953" points="183.636351 306.546097 122.446687 367.689495 244.784277 367.689495"></polygon>
                <polygon id="Stroke-38" stroke="#1C9EC4" stroke-width="0.953" points="367.115247 367.689495 428.276845 428.83649 489.452837 367.689495"></polygon>
                <polygon id="Stroke-39" stroke="#1C9EC4" stroke-width="0.953" points="428.407891 428.815701 489.452909 489.982838 489.452909 367.689567"></polygon>
                <polygon id="Stroke-40" stroke="#1C9EC4" stroke-width="0.953" points="367.115247 489.983125 428.166742 428.815989 367.115247 367.689855"></polygon>
                <polygon id="Stroke-41" stroke="#1C9EC4" stroke-width="0.953" points="367.115247 489.983125 489.452837 489.983125 428.276845 428.83613"></polygon>
                <polygon id="Stroke-42" stroke="#1C9EC4" stroke-width="0.953" points="305.932707 306.546097 367.128848 245.409891 244.784781 245.409891"></polygon>
                <polygon id="Stroke-43" stroke="#1C9EC4" stroke-width="0.953" points="306.084045 306.522071 367.129064 367.689207 367.129064 245.409604"></polygon>
                <polygon id="Stroke-44" stroke="#1C9EC4" stroke-width="0.953" points="305.829511 306.522071 244.784493 367.689207 244.784493 245.409604"></polygon>
                <polygon id="Stroke-45" stroke="#1C9EC4" stroke-width="0.953" points="305.932707 306.546097 367.128848 367.689495 244.784781 367.689495"></polygon>
                <polygon id="Stroke-46" stroke="#1C9EC4" stroke-width="0.953" points="183.595188 61.9760276 244.784853 123.123023 122.447262 123.123023"></polygon>
                <g id="Group-51" transform="translate(0.000000, 0.215800)" stroke-width="0.953" stroke="#1C9EC4">
                    <polygon id="Stroke-47" points="122.446903 0.609923382 122.446903 122.906791 183.491921 61.7741825"></polygon>
                    <polygon id="Stroke-49" points="0.109384198 122.907007 61.2918524 184.050405 122.446975 122.907007"></polygon>
                </g>
                <polygon id="Stroke-52" stroke="#1C9EC4" stroke-width="0.953" points="61.4019562 184.24218 122.446975 245.409316 122.446975 123.122519"></polygon>
                <polygon id="Stroke-53" stroke="#1C9EC4" stroke-width="0.953" points="428.29095 184.24218 367.129351 245.409316 367.129351 123.122519"></polygon>
                <polygon id="Stroke-54" stroke="#1C9EC4" stroke-width="0.953" points="367.115247 123.122807 428.276845 184.138883 489.452837 123.122807"></polygon>
                <polygon id="Stroke-55" stroke="#1C9EC4" stroke-width="0.953" points="367.115247 0.829176416 305.967321 61.9898388 367.115247 123.123167"></polygon>
                <polygon id="Stroke-57" stroke="#1C9EC4" stroke-width="0.953" points="305.974013 62.1065868 244.784349 123.122663 367.129136 123.122663"></polygon>
                <polygon id="Stroke-58" stroke="#1C9EC4" stroke-width="0.953" points="122.446903 489.849113 183.622894 428.681977 122.446903 367.55872"></polygon>
                <polygon id="Stroke-59" stroke="#1C9EC4" stroke-width="0.953" points="183.595188 428.564797 244.784853 367.558792 122.447262 367.558792"></polygon>
                <polygon id="Stroke-60" stroke="#1C9EC4" stroke-width="0.953" points="61.2781794 306.566741 122.446975 245.409676 122.446975 367.689279"></polygon>
                <polygon id="Stroke-61" stroke="#1C9EC4" stroke-width="0.953" points="0.109384198 367.689495 122.446975 367.689495 61.2918524 306.677015"></polygon>
                <polygon id="Stroke-63" stroke="#1C9EC4" stroke-width="0.953" points="367.115247 367.558936 489.452837 367.558936 428.276845 306.419134"></polygon>
                <polygon id="Stroke-64" stroke="#1C9EC4" stroke-width="0.953" points="428.167101 306.436038 367.129279 245.278973 367.129279 367.558576"></polygon>
                <polygon id="Stroke-65" stroke="#1C9EC4" stroke-width="0.953" points="305.974013 428.698809 244.784349 367.559008 367.129136 367.559008"></polygon>
                <polygon id="Stroke-66" stroke="#1C9EC4" stroke-width="0.953" points="306.084045 428.681617 367.129064 489.848754 367.129064 367.55908"></polygon>
                <polygon id="Stroke-67" stroke="#1C9EC4" stroke-width="0.953" points="489.564668 367.686186 611.902258 367.686186 550.747136 306.539191"></polygon>
                <polygon id="Stroke-68" stroke="#1C9EC4" stroke-width="0.953" points="489.564668 245.389031 489.564668 367.685898 550.60249 306.55329"></polygon>
                <polygon id="Stroke-69" stroke="#1C9EC4" stroke-width="0.953" points="611.902186 245.389031 550.857168 306.55329 611.902186 367.685898"></polygon>
                <polygon id="Stroke-70" stroke="#1C9EC4" stroke-width="0.953" points="489.564668 245.389031 550.747136 306.539622 611.902258 245.389031"></polygon>
                <polygon id="Stroke-71" stroke="#1C9EC4" stroke-width="0.953" points="673.091635 428.832965 611.90197 489.972767 734.239561 489.972767"></polygon>
                <polygon id="Stroke-72" stroke="#1C9EC4" stroke-width="0.953" points="672.947277 428.850229 611.902258 367.68597 611.902258 489.972767"></polygon>
                <polygon id="Stroke-73" stroke="#1C9EC4" stroke-width="0.953" points="673.208647 428.850229 734.239992 367.68597 734.239992 489.972767"></polygon>
                <polygon id="Stroke-74" stroke="#1C9EC4" stroke-width="0.953" points="673.091635 428.832965 611.90197 367.68597 734.239561 367.68597"></polygon>
                <g id="Group-79" transform="translate(856.363132, 244.789394)" stroke-width="0.953" stroke="#1C9EC4">
                    <polygon id="Stroke-75" points="0.207398197 122.896792 122.544989 122.896792 61.368997 61.749797"></polygon>
                    <polygon id="Stroke-77" points="122.544989 0.609995316 61.4999702 61.7634644 122.544989 122.896792"></polygon>
                </g>
                <polygon id="Stroke-80" stroke="#1C9EC4" stroke-width="0.953" points="856.57053 245.392484 856.57053 367.686474 917.622025 306.553146"></polygon>
                <polygon id="Stroke-81" stroke="#1C9EC4" stroke-width="0.953" points="856.57053 245.392484 917.732129 306.539479 978.908121 245.399677"></polygon>
                <polygon id="Stroke-83" stroke="#1C9EC4" stroke-width="0.953" points="795.387918 428.832965 856.584059 489.972767 734.239992 489.972767"></polygon>
                <polygon id="Stroke-84" stroke="#1C9EC4" stroke-width="0.953" points="795.539329 428.850229 856.584347 367.68597 856.584347 489.972767"></polygon>
                <polygon id="Stroke-85" stroke="#1C9EC4" stroke-width="0.953" points="795.284795 428.850229 734.239777 367.68597 734.239777 489.972767"></polygon>
                <polygon id="Stroke-86" stroke="#1C9EC4" stroke-width="0.953" points="795.387918 428.832965 856.584059 367.68597 734.239992 367.68597"></polygon>
                <polygon id="Stroke-87" stroke="#1C9EC4" stroke-width="0.953" points="489.564668 612.252874 550.747136 673.399869 611.902258 612.252874"></polygon>
                <g id="Group-94" transform="translate(489.350361, 611.649784)" stroke-width="0.953" stroke="#1C9EC4">
                    <polygon id="Stroke-88" points="0.214306673 122.89672 61.2521286 61.7295838 0.214306673 0.603449376"></polygon>
                    <polygon id="Stroke-90" points="61.5068787 61.7292241 122.551897 122.896361 122.551897 0.603089708"></polygon>
                    <polygon id="Stroke-92" points="0.214306673 122.89672 122.551897 122.89672 61.3967749 61.7497251"></polygon>
                </g>
                <polygon id="Stroke-95" stroke="#1C9EC4" stroke-width="0.953" points="673.091635 551.109404 611.90197 489.966005 734.239561 489.973199"></polygon>
                <polygon id="Stroke-96" stroke="#1C9EC4" stroke-width="0.953" points="672.947277 551.08545 611.902258 612.252586 611.902258 489.965789"></polygon>
                <polygon id="Stroke-97" stroke="#1C9EC4" stroke-width="0.953" points="673.208647 551.08545 734.239992 612.252586 734.239992 489.972983"></polygon>
                <polygon id="Stroke-98" stroke="#1C9EC4" stroke-width="0.953" points="673.091635 551.109404 611.90197 612.252802 734.239561 612.252802"></polygon>
                <g id="Group-107" transform="translate(856.363132, 611.649784)" stroke-width="0.953" stroke="#1C9EC4">
                    <polygon id="Stroke-99" points="0.207398197 0.603089708 61.368997 61.7500848 122.544989 0.603089708"></polygon>
                    <polygon id="Stroke-101" points="61.5000422 61.7292241 122.54506 122.896361 122.54506 0.603089708"></polygon>
                    <polygon id="Stroke-103" points="0.207398197 122.89672 61.2588932 61.7295838 0.207398197 0.603449376"></polygon>
                    <polygon id="Stroke-105" points="0.207398197 122.89672 122.544989 122.89672 61.368997 61.7497251"></polygon>
                </g>
                <polygon id="Stroke-108" stroke="#2199E8" stroke-width="0.953" points="795.387918 551.109404 856.584059 489.973199 734.239992 489.973199"></polygon>
                <polygon id="Stroke-109" stroke="#2199E8" stroke-width="0.953" points="795.539329 551.08545 856.584347 612.252586 856.584347 489.972983"></polygon>
                <polygon id="Stroke-110" stroke="#2199E8" stroke-width="0.953" points="795.284795 551.08545 734.239777 612.252586 734.239777 489.972983"></polygon>
                <polygon id="Stroke-111" stroke="#2199E8" stroke-width="0.953" points="795.387918 551.109404 856.584059 612.252802 734.239992 612.252802"></polygon>
                <polygon id="Stroke-112" stroke="#2199E8" stroke-width="0.953" points="673.050472 306.539335 734.240136 367.68633 611.902546 367.68633"></polygon>
                <polygon id="Stroke-113" stroke="#2199E8" stroke-width="0.953" points="611.902186 245.389031 611.902186 367.685898 672.947205 306.55329"></polygon>
                <polygon id="Stroke-114" stroke="#2199E8" stroke-width="0.953" points="489.564668 367.686186 550.747136 428.829584 611.902258 367.686186"></polygon>
                <polygon id="Stroke-115" stroke="#2199E8" stroke-width="0.953" points="550.85724 428.805487 611.902258 489.972623 611.902258 367.685826"></polygon>
                <polygon id="Stroke-116" stroke="#2199E8" stroke-width="0.953" points="917.746306 428.805487 856.583988 489.972623 856.583988 367.685826"></polygon>
                <polygon id="Stroke-117" stroke="#2199E8" stroke-width="0.953" points="856.57053 367.686186 917.732129 428.702262 978.908121 367.686186"></polygon>
                <polygon id="Stroke-119" stroke="#2199E8" stroke-width="0.953" points="856.57053 245.392484 795.422605 306.553146 856.57053 367.686474"></polygon>
                <polygon id="Stroke-120" stroke="#2199E8" stroke-width="0.953" points="795.429297 306.669966 734.239633 367.686042 856.584419 367.686042"></polygon>
                <polygon id="Stroke-121" stroke="#2199E8" stroke-width="0.953" points="611.902186 734.412421 673.078178 673.245284 611.902186 612.122027"></polygon>
                <polygon id="Stroke-123" stroke="#2199E8" stroke-width="0.953" points="673.050472 673.128105 734.240136 612.122099 611.902546 612.122099"></polygon>
                <polygon id="Stroke-124" stroke="#2199E8" stroke-width="0.953" points="550.733535 551.13012 611.90233 489.973055 611.90233 612.252658"></polygon>
                <polygon id="Stroke-125" stroke="#2199E8" stroke-width="0.953" points="489.564668 612.252874 611.902258 612.252874 550.747136 551.240394"></polygon>
                <polygon id="Stroke-126" stroke="#2199E8" stroke-width="0.953" points="856.57053 612.122243 978.908121 612.122243 917.732129 550.982441"></polygon>
                <polygon id="Stroke-128" stroke="#2199E8" stroke-width="0.953" points="917.622313 550.999417 856.584491 489.842352 856.584491 612.121955"></polygon>
                <polygon id="Stroke-129" stroke="#2199E8" stroke-width="0.953" points="795.429297 673.262189 734.239633 612.122387 856.584419 612.122387"></polygon>
                <polygon id="Stroke-130" stroke="#2199E8" stroke-width="0.953" points="795.539329 673.244996 856.584347 734.412133 856.584347 612.122459"></polygon>
                <polyline id="Stroke-132" stroke="#2199E8" stroke-width="0.953" points="306.016976 550.935756 367.12892 489.849185 428.407819 551.121345 367.30523 612.198564"></polyline>
                <polyline id="Stroke-133" stroke="#2199E8" stroke-width="0.953" points="244.784565 367.558936 244.898267 489.842136 306.084333 428.681473"></polyline>
                <polyline id="Stroke-134" stroke="#2199E8" points="367.122155 245.758984 489.099929 245.758984 489.099929 123.11252"></polyline>
                <polyline id="Stroke-135" stroke="#2199E8" stroke-width="0.953" points="428.167101 306.436038 489.569058 245.405575 428.277205 184.139171"></polyline>
                <polyline id="Stroke-136" stroke="#2199E8" points="183.542655 428.590118 428.291238 673.357932 489.100217 612.123897 489.100217 490.332722 611.797624 490.332722"></polyline>
                <path d="M428.477551,673.345487 L489.634112,734.476657" id="Stroke-137" stroke="#2199E8" stroke-width="0.953"></path>
                <path d="M489.420597,490.630023 L550.401568,551.585675" id="Stroke-139" stroke="#2199E8" stroke-width="0.953"></path>
                <polyline id="Stroke-140" stroke="#2199E8" points="551.06399 429.012151 489.420238 490.63031 428.407603 551.121273 489.428154 612.116488 367.305014 612.038081 367.179798 489.613172 244.591056 489.613172 122.447046 489.688702"></polyline>
            </g>
        </g>
    </g>
</svg>