<svg xmlns="http://www.w3.org/2000/svg" viewBox="0 0 23 22.43"><path d="M11.5,0A11.5,11.5,0,0,0,7.86,22.41c.58.11.76-.23.76-.54s0-1,0-2c-3.2.69-3.86-1.52-3.86-1.52a3,3,0,0,0-1.28-1.68c-1-.72.08-.7.08-.7a2.42,2.42,0,0,1,1.76,1.18,2.46,2.46,0,0,0,3.35,1,2.5,2.5,0,0,1,.73-1.54c-2.55-.29-5.24-1.27-5.24-5.68A4.44,4.44,0,0,1,5.35,7.81a4.09,4.09,0,0,1,.11-3s1-.31,3.16,1.18a10.83,10.83,0,0,1,5.76,0c2.2-1.49,3.16-1.18,3.16-1.18a4.09,4.09,0,0,1,.11,3,4.44,4.44,0,0,1,1.19,3.09c0,4.42-2.69,5.39-5.25,5.67a2.74,2.74,0,0,1,.78,2.12v3.19c0,.3.19.64.77.53A11.5,11.5,0,0,0,11.5,0Z"></path></svg>
