<?xml version="1.0" encoding="UTF-8"?>
<svg width="24px" height="24px" viewBox="0 0 24 24" version="1.1" xmlns="http://www.w3.org/2000/svg" xmlns:xlink="http://www.w3.org/1999/xlink">
    <!-- Generator: sketchtool 41.2 (35397) - http://www.bohemiancoding.com/sketch -->
    <title>3DDF3464-1B1E-4FCC-950F-56B87B289653</title>
    <desc>Created with sketchtool.</desc>
    <defs></defs>
    <g id="Doc-Center-V2" stroke="none" stroke-width="1" fill="none" fill-rule="evenodd" stroke-linejoin="round">
        <g id="V2-/-DocCenter---Home" transform="translate(-1194.000000, -1982.000000)" stroke="#D9E6F0">
            <g id="Group-7" transform="translate(1061.000000, 1982.000000)">
                <g id="google-plus" transform="translate(133.000000, 0.000000)">
                    <path d="M23.5,12 C23.5,18.351 18.352,23.5 12,23.5 C5.648,23.5 0.5,18.351 0.5,12 C0.5,5.649 5.648,0.5 12,0.5 C18.352,0.5 23.5,5.649 23.5,12 L23.5,12 Z" id="Stroke-1" stroke-linecap="round"></path>
                    <path d="M12.3536,8.9994 C11.5296,8.0794 10.3326,7.5004 8.9996,7.5004 C6.5146,7.5004 4.4996,9.5144 4.4996,12.0004 C4.4996,14.4854 6.5146,16.5004 8.9996,16.5004 C11.3156,16.5004 13.2236,14.7504 13.4726,12.5004 L8.9996,12.5004" id="Stroke-3"></path>
                    <path d="M16,12.5 L21,12.5" id="Stroke-5"></path>
                    <path d="M18.5,10 L18.5,15" id="Stroke-7"></path>
                </g>
            </g>
        </g>
    </g>
</svg>