<?xml version="1.0" encoding="UTF-8"?>
<svg width="72px" height="62px" viewBox="0 0 72 62" version="1.1" xmlns="http://www.w3.org/2000/svg" xmlns:xlink="http://www.w3.org/1999/xlink">
    <!-- Generator: sketchtool 41.2 (35397) - http://www.bohemiancoding.com/sketch -->
    <title>DC7B16F0-3934-4EC3-8A9F-4E35B362286D</title>
    <desc>Created with sketchtool.</desc>
    <defs></defs>
    <g id="Doc-Center-V2" stroke="none" stroke-width="1" fill="none" fill-rule="evenodd" stroke-linejoin="round">
        <g id="V2-/-DocCenter---Home" transform="translate(-230.000000, -906.000000)" stroke="#BDC2C8" stroke-width="2">
            <g id="Tutorials" transform="translate(135.000000, 905.000000)">
                <g transform="translate(96.000000, 2.000000)">
                    <path d="M69.5,48.5 C69.5,50.159 68.159,51.5 66.5,51.5 L3.5,51.5 C1.847,51.5 0.5,50.159 0.5,48.5 L0.5,3.5 C0.5,1.841 1.847,0.5 3.5,0.5 L66.5,0.5 C68.159,0.5 69.5,1.841 69.5,3.5 L69.5,48.5 L69.5,48.5 Z" id="Stroke-8277" fill="#FFFFFF"></path>
                    <path d="M20,60 L50,60" id="Stroke-8278" stroke-linecap="round"></path>
                    <path d="M30,51.5 L30,60.5" id="Stroke-8279"></path>
                    <path d="M39,51.5 L39,60.5" id="Stroke-8280"></path>
                    <polygon id="Stroke-8281" stroke-linecap="round" points="36.5 29 57.5 20 36.5 11 15.5 20"></polygon>
                    <polyline id="Stroke-8282" stroke-linecap="round" points="24.5 24.5 24.5 35 36.5 41 48.5 35 48.5 24.5"></polyline>
                    <path d="M15,20 L15,30.5" id="Stroke-8283" stroke-linecap="round"></path>
                    <polyline id="Stroke-8284" stroke-linecap="round" points="15.5 30.5 12.5 39.5 18.5 39.5 15.5 30.5"></polyline>
                </g>
            </g>
        </g>
    </g>
</svg>