<?xml version="1.0" encoding="UTF-8"?>
<svg width="65px" height="65px" viewBox="0 0 65 65" version="1.1" xmlns="http://www.w3.org/2000/svg" xmlns:xlink="http://www.w3.org/1999/xlink">
    <!-- Generator: Sketch 40.3 (33839) - http://www.bohemiancoding.com/sketch -->
    <title>Icons /User Doc</title>
    <desc>Created with Sketch.</desc>
    <defs></defs>
    <g id="Doc-Center-V1" stroke="none" stroke-width="1" fill="none" fill-rule="evenodd" stroke-linejoin="round">
        <g id="V1-/1-Home" transform="translate(-231.000000, -1144.000000)" stroke="#BDC2C8" stroke-width="2">
            <g id="Nuxeo-Packages-Copy" transform="translate(135.000000, 1145.000000)">
                <g id="Icons-/User-Doc" transform="translate(97.000000, 0.000000)">
                    <polygon id="Stroke-1173" stroke-linecap="round" points="8.47916667 62.6458333 54.5208333 62.6458333 54.5208333 0.354166667 8.47916667 0.354166667"></polygon>
                    <path d="M8.47916667,0.354166667 L3.0625,0.354166667 C1.57291667,0.354166667 0.354166667,1.57291667 0.354166667,3.0625 L0.354166667,59.9375 C0.354166667,61.4270833 1.57291667,62.6458333 3.0625,62.6458333 L8.47916667,62.6458333" id="Stroke-1174" stroke-linecap="round"></path>
                    <path d="M34.2083333,31.5 L34.2083333,35.5625 L41.0820833,37.52875 C42.5147917,37.9377083 43.6875,39.4895833 43.6875,40.9791667 L43.6875,49.1041667 L16.6041667,49.1041667 L16.6041667,40.9791667 C16.6041667,39.4895833 17.776875,37.9377083 19.206875,37.52875 L26.0833333,35.5625 L26.0833333,31.5" id="Stroke-1175"></path>
                    <path d="M38.2708333,24.1076042 C38.2708333,29.0042708 34.6308333,32.9692708 30.1458333,32.9692708 C25.658125,32.9692708 22.0208333,29.0042708 22.0208333,24.1076042 C22.0208333,19.2163542 25.658125,15.2486458 30.1458333,15.2486458 C34.6308333,15.2486458 38.2708333,19.2163542 38.2708333,24.1076042 L38.2708333,24.1076042 Z" id="Stroke-1176"></path>
                    <path d="M38.1860625,22.4969583 C36.8318958,23.851125 32.9589792,23.8457083 31.4991875,21.12925 C28.7908542,23.8375833 24.3898125,23.8375833 22.1987708,22.291125" id="Stroke-1177"></path>
                    <path d="M54.5208333,4.41666667 L57.2291667,4.41666667 C60.2083333,4.41666667 62.6458333,6.85416667 62.6458333,9.83333333 L62.6458333,17.9583333 L54.5208333,17.9583333" id="Stroke-1178"></path>
                    <polyline id="Stroke-1179" points="54.5208333 17.9583333 62.6458333 17.9583333 62.6458333 31.5 54.5208333 31.5"></polyline>
                    <polyline id="Stroke-1180" points="54.5208333 31.5 62.6458333 31.5 62.6458333 45.0416667 54.5208333 45.0416667"></polyline>
                    <path d="M54.5208333,45.0416667 L62.6458333,45.0416667 L62.6458333,53.1666667 C62.6458333,56.1458333 60.2083333,58.5833333 57.2291667,58.5833333 L54.5208333,58.5833333" id="Stroke-1181"></path>
                </g>
            </g>
        </g>
    </g>
</svg>