<?xml version="1.0" encoding="UTF-8"?>
<svg width="64px" height="64px" viewBox="0 0 64 64" version="1.1" xmlns="http://www.w3.org/2000/svg" xmlns:xlink="http://www.w3.org/1999/xlink">
    <!-- Generator: Sketch 40.1 (33804) - http://www.bohemiancoding.com/sketch -->
    <title>Tools</title>
    <desc>Created with Sketch.</desc>
    <defs></defs>
    <g id="Doc-Center-V1" stroke="none" stroke-width="1" fill="none" fill-rule="evenodd" stroke-linejoin="round">
        <g id="V1-/1-Home" transform="translate(-987.000000, -1139.000000)" stroke="#BDC2C8" stroke-width="2">
            <g id="Tools" transform="translate(894.000000, 1140.000000)">
                <g transform="translate(94.000000, 0.000000)">
                    <path d="M46.8437333,20.8125333 C50.7264,22.4552 55.3824,21.7032 58.5450667,18.5378667 C61.7104,15.3725333 62.4650667,10.9165333 60.8224,7.0312 L55.7184,12.3325333 L49.6677333,12.3325333 L49.6677333,6.28186667 L54.9690667,1.17786667 C51.0864,-0.4648 46.5290667,0.289866667 43.3637333,3.45253333 C40.1984,6.61786667 39.4944,11.2738667 41.1344,15.1565333 L15.1557333,41.1885333 C11.2730667,39.5432 6.61706667,40.2978667 3.4544,43.4632 C0.289066667,46.6285333 -0.4656,51.0845333 1.17706667,54.9698667 L6.28106667,49.6658667 L12.3344,49.6658667 L12.3344,55.7192 L7.0304,60.8232 C10.9130667,62.4685333 15.4704,61.7112 18.6357333,58.5458667 C21.8010667,55.3832 22.5077333,50.7272 20.8650667,46.8445333 L46.8437333,20.8125333 L46.8437333,20.8125333 Z" id="Stroke-3049"></path>
                    <path d="M31,36.6757333 L41.1866667,46.8437333 C39.544,50.7290667 40.296,55.3824 43.464,58.5450667 C46.6266667,61.7130667 51.0826667,62.4677333 54.968,60.8224 L49.6666667,55.7184 L49.6666667,49.6650667 L55.72,49.6650667 L60.824,54.9690667 C62.4666667,51.0864 61.712,46.5290667 58.5466667,43.3637333 C55.384,40.1984 50.7253333,39.4944 46.8426667,41.1344 L36.6853333,30.9957333" id="Stroke-3050"></path>
                    <path d="M30.9973333,25.3216 L20.8133333,15.1562667 C22.456,11.2736 21.704,6.6176 18.536,3.45493333 C15.3733333,0.2896 10.9173333,-0.465066667 7.032,1.1776 L12.3333333,6.2816 L12.3333333,12.3322667 L6.28266667,12.3322667 L1.176,7.03093333 C-0.466666667,10.9162667 0.288,15.4709333 3.45333333,18.6362667 C6.616,21.8016 11.2746667,22.5056 15.1573333,20.8656 L25.3146667,31.0016" id="Stroke-3051"></path>
                </g>
            </g>
        </g>
    </g>
</svg>