<?xml version="1.0" encoding="UTF-8"?>
<svg width="72px" height="64px" viewBox="0 0 72 64" version="1.1" xmlns="http://www.w3.org/2000/svg" xmlns:xlink="http://www.w3.org/1999/xlink">
    <!-- Generator: Sketch 40.1 (33804) - http://www.bohemiancoding.com/sketch -->
    <title>Web UI</title>
    <desc>Created with Sketch.</desc>
    <defs></defs>
    <g id="Doc-Center-V1" stroke="none" stroke-width="1" fill="none" fill-rule="evenodd" stroke-linejoin="round">
        <g id="V1-/1-Home" transform="translate(-380.000000, -1154.000000)" stroke="#BDC2C8" stroke-width="2">
            <g id="Nuxeo-Packages" transform="translate(286.000000, 1155.000000)">
                <g id="Web-UI" transform="translate(95.000000, 0.000000)">
                    <g id="Group-98" transform="translate(12.000000, 7.000000)" stroke-linecap="round">
                        <path d="M15.3076923,4.88571429 C15.3076923,7.40914286 13.2687179,9.45714286 10.7564103,9.45714286 C8.24410256,9.45714286 6.20512821,7.40914286 6.20512821,4.88571429 C6.20512821,2.36228571 8.24410256,0.314285714 10.7564103,0.314285714 C13.2687179,0.314285714 15.3076923,2.36228571 15.3076923,4.88571429 L15.3076923,4.88571429 Z" id="Stroke-9338"></path>
                        <path d="M0.743589744,3.97142857 L6.81196581,3.97142857" id="Stroke-9340"></path>
                        <path d="M15.3076923,3.97142857 L45.6495726,3.97142857" id="Stroke-9341"></path>
                    </g>
                    <path d="M69.7863248,50.0175238 C69.7863248,52.6902857 67.7503846,54.8571429 65.2350427,54.8571429 L4.55128205,54.8571429 C2.03897436,54.8571429 -2.84217094e-14,52.6902857 -2.84217094e-14,50.0175238 L-2.84217094e-14,4.83961905 C-2.84217094e-14,2.16685714 2.03897436,0 4.55128205,0 L65.2350427,0 C67.7503846,0 69.7863248,2.16685714 69.7863248,4.83961905 L69.7863248,50.0175238 L69.7863248,50.0175238 Z" id="Stroke-9333" stroke-linecap="round"></path>
                    <path d="M15,60 L57.4786325,60" id="Stroke-9334" stroke-linecap="round"></path>
                    <path d="M35,55 L35,61.0952381" id="Stroke-9335" stroke-linecap="round"></path>
                    <path d="M36.034188,49.5238095 C36.034188,50.3649524 35.3545299,51.047619 34.517094,51.047619 C33.6796581,51.047619 33,50.3649524 33,49.5238095 C33,48.6826667 33.6796581,48 34.517094,48 C35.3545299,48 36.034188,48.6826667 36.034188,49.5238095 L36.034188,49.5238095 Z" id="Stroke-9336"></path>
                    <path d="M-2.84217094e-14,42 L69.7863248,42" id="Stroke-9337"></path>
                    <path d="M51.1025641,26.5714286 C51.1025641,29.0948571 49.0635897,31.1428571 46.5512821,31.1428571 C44.0389744,31.1428571 42,29.0948571 42,26.5714286 C42,24.048 44.0389744,22 46.5512821,22 C49.0635897,22 51.1025641,24.048 51.1025641,26.5714286 L51.1025641,26.5714286 Z" id="Stroke-9339" stroke-linecap="round"></path>
                    <path d="M43.3418803,26 L13,26" id="Stroke-9342" stroke-linecap="round"></path>
                    <path d="M51,26 L57.0683761,26" id="Stroke-9343" stroke-linecap="round"></path>
                </g>
            </g>
        </g>
    </g>
</svg>