<?xml version="1.0" encoding="UTF-8"?>
<svg width="69px" height="60px" viewBox="0 0 69 60" version="1.1" xmlns="http://www.w3.org/2000/svg" xmlns:xlink="http://www.w3.org/1999/xlink">
    <!-- Generator: Sketch 40.1 (33804) - http://www.bohemiancoding.com/sketch -->
    <title>Online Services</title>
    <desc>Created with Sketch.</desc>
    <defs></defs>
    <g id="Doc-Center-V1" stroke="none" stroke-width="1" fill="none" fill-rule="evenodd" stroke-linejoin="round">
        <g id="V1-/1-Home" transform="translate(-684.000000, -1149.000000)" stroke="#BDC2C8" stroke-width="2">
            <g id="Online-Services" transform="translate(590.000000, 1141.000000)">
                <g transform="translate(95.000000, 9.000000)">
                    <path d="M36.75,29.875 C36.75,31.464875 35.462,32.75 33.875,32.75 C32.288,32.75 31,31.464875 31,29.875 C31,28.288 32.288,27 33.875,27 C35.462,27 36.75,28.288 36.75,29.875 L36.75,29.875 Z" id="Stroke-9384" stroke-linecap="round"></path>
                    <path d="M25,24.3680625 C29.49075,19.8773125 36.776,19.8773125 41.261,24.3680625" id="Stroke-9385" stroke-linecap="round"></path>
                    <path d="M20,19.4736407 C27.29675,12.1740157 39.13025,12.1768907 46.424125,19.4736407" id="Stroke-9386" stroke-linecap="round"></path>
                    <path d="M16,15.1565938 C25.53925,5.61446875 41.015375,5.61446875 50.5575,15.1565938" id="Stroke-9387" stroke-linecap="round"></path>
                    <path d="M66.125,47.1845 C66.125,49.705875 64.195875,51.75 61.8125,51.75 L4.3125,51.75 C1.932,51.75 0,49.705875 0,47.1845 L0,4.5655 C0,2.044125 1.932,0 4.3125,0 L61.8125,0 C64.195875,0 66.125,2.044125 66.125,4.5655 L66.125,47.1845 L66.125,47.1845 Z" id="Stroke-9388" stroke-linecap="round"></path>
                    <path d="M13,56 L53.25,56" id="Stroke-9389" stroke-linecap="round"></path>
                    <path d="M33,52 L33,57.75" id="Stroke-9390" stroke-linecap="round"></path>
                    <path d="M34.875,45.4375 C34.875,46.231 34.231,46.875 33.4375,46.875 C32.644,46.875 32,46.231 32,45.4375 C32,44.644 32.644,44 33.4375,44 C34.231,44 34.875,44.644 34.875,45.4375 L34.875,45.4375 Z" id="Stroke-9391"></path>
                    <path d="M0,39 L66.125,39" id="Stroke-9392"></path>
                </g>
            </g>
        </g>
    </g>
</svg>