<?xml version="1.0" encoding="UTF-8"?>
<svg width="67px" height="70px" viewBox="0 0 67 70" version="1.1" xmlns="http://www.w3.org/2000/svg" xmlns:xlink="http://www.w3.org/1999/xlink">
    <!-- Generator: sketchtool 41.2 (35397) - http://www.bohemiancoding.com/sketch -->
    <title>A37F1FF3-0EDE-4EF2-A2DD-3C119EF0A178</title>
    <desc>Created with sketchtool.</desc>
    <defs></defs>
    <g id="Doc-Center-V2" stroke="none" stroke-width="1" fill="none" fill-rule="evenodd" stroke-linecap="round" stroke-linejoin="round">
        <g id="V2-/-DocCenter---Home" transform="translate(-534.000000, -1147.000000)" stroke="#BDC2C8" stroke-width="2">
            <g id="Nuxeo-Packages" transform="translate(439.000000, 1148.000000)">
                <g id="Packages" transform="translate(96.000000, 0.000000)">
                    <polygon id="Stroke-2059" fill="#FFFFFF" points="35.4583333 29.625 50.0416667 23.7916667 50.0416667 4.83333333 35.4583333 9.20833333 20.875 4.83333333 20.875 23.7916667"></polygon>
                    <polygon id="Stroke-2060" fill="#FFFFFF" points="50.0416667 4.83333333 35.4583333 0.458333333 20.875 4.83333333 35.065196 8.99470957"></polygon>
                    <path d="M35,9.10158333 L35,29.51825" id="Stroke-2061"></path>
                    <polygon id="Stroke-2062" points="52.9583333 54.4166667 64.625 48.5833333 64.625 35.4583333 52.9583333 39.8333333 41.2916667 35.4583333 41.2916667 48.5833333"></polygon>
                    <polyline id="Stroke-2063" points="64.625 35.4583333 52.9583333 31.0833333 41.2916667 35.4583333"></polyline>
                    <path d="M52,39.7265833 L52,54.3099167" id="Stroke-2064"></path>
                    <polygon id="Stroke-2065" points="17.9583333 67.5416667 35.4583333 61.7083333 35.4583333 38.375 17.9583333 44.2083333 0.458333333 38.375 0.458333333 61.7083333"></polygon>
                    <polyline id="Stroke-2066" points="35.4583333 38.375 17.9583333 32.5416667 0.458333333 38.375"></polyline>
                    <path d="M17,44.1015833 L17,67.4349167" id="Stroke-2067"></path>
                </g>
            </g>
        </g>
    </g>
</svg>