<?xml version="1.0" encoding="UTF-8"?>
<svg width="67px" height="70px" viewBox="0 0 67 70" version="1.1" xmlns="http://www.w3.org/2000/svg" xmlns:xlink="http://www.w3.org/1999/xlink">
    <!-- Generator: Sketch 40.1 (33804) - http://www.bohemiancoding.com/sketch -->
    <title>Packages</title>
    <desc>Created with Sketch.</desc>
    <defs></defs>
    <g id="Doc-Center-V1" stroke="none" stroke-width="1" fill="none" fill-rule="evenodd" stroke-linecap="round" stroke-linejoin="round">
        <g id="V1-/1-Home" transform="translate(-381.000000, -1143.000000)" stroke="#BDC2C8" stroke-width="2">
            <g id="Nuxeo-Packages" transform="translate(286.000000, 1139.000000)">
                <g id="Packages" transform="translate(95.000000, 4.000000)">
                    <polygon id="Stroke-2059" points="36.4583333 30.625 51.0416667 24.7916667 51.0416667 5.83333333 36.4583333 10.2083333 21.875 5.83333333 21.875 24.7916667"></polygon>
                    <polyline id="Stroke-2060" points="51.0416667 5.83333333 36.4583333 1.45833333 21.875 5.83333333"></polyline>
                    <path d="M36,10.1015833 L36,30.51825" id="Stroke-2061"></path>
                    <polygon id="Stroke-2062" points="53.9583333 55.4166667 65.625 49.5833333 65.625 36.4583333 53.9583333 40.8333333 42.2916667 36.4583333 42.2916667 49.5833333"></polygon>
                    <polyline id="Stroke-2063" points="65.625 36.4583333 53.9583333 32.0833333 42.2916667 36.4583333"></polyline>
                    <path d="M53,40.7265833 L53,55.3099167" id="Stroke-2064"></path>
                    <polygon id="Stroke-2065" points="18.9583333 68.5416667 36.4583333 62.7083333 36.4583333 39.375 18.9583333 45.2083333 1.45833333 39.375 1.45833333 62.7083333"></polygon>
                    <polyline id="Stroke-2066" points="36.4583333 39.375 18.9583333 33.5416667 1.45833333 39.375"></polyline>
                    <path d="M18,45.1015833 L18,68.4349167" id="Stroke-2067"></path>
                </g>
            </g>
        </g>
    </g>
</svg>