<?xml version="1.0" encoding="UTF-8"?>
<svg width="17px" height="17px" viewBox="0 0 17 17" version="1.1" xmlns="http://www.w3.org/2000/svg" xmlns:xlink="http://www.w3.org/1999/xlink">
    <!-- Generator: sketchtool 41.2 (35397) - http://www.bohemiancoding.com/sketch -->
    <title>00EA724C-E79C-4517-8D91-083731963A56</title>
    <desc>Created with sketchtool.</desc>
    <defs></defs>
    <g id="Doc-Center-V2" stroke="none" stroke-width="1" fill="none" fill-rule="evenodd" opacity="0.5" stroke-linejoin="round">
        <g id="V2-/-DocCenter---Page" transform="translate(-625.000000, -208.000000)" stroke="#000522">
            <g id="Group-10" transform="translate(412.000000, 108.000000)">
                <g id="info-icon" transform="translate(214.000000, 101.000000)">
                    <path d="M14.673913,7.5 C14.673913,11.4619565 11.4613043,14.673913 7.5,14.673913 C3.5373913,14.673913 0.326086957,11.4619565 0.326086957,7.5 C0.326086957,3.53804348 3.5373913,0.326086957 7.5,0.326086957 C11.4613043,0.326086957 14.673913,3.53804348 14.673913,7.5 L14.673913,7.5 Z" id="Stroke-3202" stroke-linecap="round"></path>
                    <path d="M5.54347826,12.0652174 L9.45652174,12.0652174" id="Stroke-3203" stroke-linecap="round"></path>
                    <polyline id="Stroke-3204" stroke-linecap="round" points="6.19565217 6.19565217 7.5 6.19565217 7.5 11.7391304"></polyline>
                    <path d="M7.17391304,3.26086957 C6.99326087,3.26086957 6.84782609,3.4076087 6.84782609,3.58695652 C6.84782609,3.7676087 6.99326087,3.91304348 7.17391304,3.91304348 C7.35326087,3.91304348 7.5,3.7676087 7.5,3.58695652 C7.5,3.4076087 7.35326087,3.26086957 7.17391304,3.26086957 L7.17391304,3.26086957 Z" id="Stroke-3205"></path>
                </g>
            </g>
        </g>
    </g>
</svg>