<?xml version="1.0" encoding="UTF-8"?>
<svg width="24px" height="24px" viewBox="0 0 24 24" version="1.1" xmlns="http://www.w3.org/2000/svg" xmlns:xlink="http://www.w3.org/1999/xlink">
    <!-- Generator: sketchtool 41.2 (35397) - http://www.bohemiancoding.com/sketch -->
    <title>4575C0BF-4A27-4E5A-9C4A-C42B10B5690E</title>
    <desc>Created with sketchtool.</desc>
    <defs></defs>
    <g id="Doc-Center-V2" stroke="none" stroke-width="1" fill="none" fill-rule="evenodd" stroke-linejoin="round">
        <g id="V2-/-DocCenter---Home" transform="translate(-1105.000000, -1982.000000)" stroke="#D9E6F0">
            <g id="Group-7" transform="translate(1061.000000, 1982.000000)">
                <g id="linkedin" transform="translate(44.000000, 0.000000)">
                    <path d="M23.5,12 C23.5,18.351 18.352,23.5 12,23.5 C5.648,23.5 0.5,18.351 0.5,12 C0.5,5.648 5.648,0.5 12,0.5 C18.352,0.5 23.5,5.648 23.5,12 L23.5,12 Z" id="Stroke-640" stroke-linecap="round"></path>
                    <path d="M15,12.5 C14.724,12.5 14.5,12.723 14.5,13 L14.5,16.5 L11.5,16.5 C11.5,16.5 11.531,10.023 11.5,9.5 L14.5,9.5 L14.5,10.335 C14.5,10.335 14.957,9.581 16.207,9.581 C17.757,9.581 18.5,10.701 18.5,12.878 L18.5,16.5 L15.5,16.5 L15.5,13 C15.5,12.723 15.275,12.5 15,12.5 L15,12.5 Z" id="Stroke-641"></path>
                    <polygon id="Stroke-642" points="7.5 9.5 9.5 9.5 9.5 16.5 7.5 16.5"></polygon>
                    <path d="M9.5,6.5 C9.5,7.052 9.053,7.5 8.5,7.5 C7.947,7.5 7.5,7.052 7.5,6.5 C7.5,5.948 7.947,5.5 8.5,5.5 C9.053,5.5 9.5,5.948 9.5,6.5 L9.5,6.5 Z" id="Stroke-643"></path>
                </g>
            </g>
        </g>
    </g>
</svg>