<svg xmlns="http://www.w3.org/2000/svg" viewBox="0 0 27.25 30.44"><path d="M16.73 25.81h9a1 1 0 00.83-1.59A18.18 18.18 0 0123 13.39v-.33a9.38 9.38 0 00-8.07-9.28v-1.9A1.36 1.36 0 0013.69.5a1.31 1.31 0 00-1.38 1.31v2a9.37 9.37 0 00-8.06 9.28v.33A18.19 18.19 0 01.68 24.25a1 1 0 00.83 1.59h9.06m-.14.94a3.18 3.18 0 003.19 3.18 3.18 3.18 0 003.19-3.18 3.24 3.24 0 00-.14-.94h-6.1a3.24 3.24 0 00-.14.94" fill="#fff"/><path d="M13.63 30.43a3.69 3.69 0 01-3.69-3.68 3.15 3.15 0 010-.44H1.49a1.5 1.5 0 01-1.35-.83 1.49 1.49 0 01.12-1.56 17.79 17.79 0 003.47-10.53v-.33a9.91 9.91 0 018.06-9.71V1.81a1.81 1.81 0 01.56-1.32A1.87 1.87 0 0113.7 0a1.85 1.85 0 011.71 1.88v1.47a9.92 9.92 0 018.07 9.71v.33a17.78 17.78 0 003.46 10.53 1.49 1.49 0 01.12 1.56 1.5 1.5 0 01-1.35.83h-8.45a3.15 3.15 0 010 .44 3.69 3.69 0 01-3.63 3.68zm-2.65-4.12a2.12 2.12 0 000 .44 2.69 2.69 0 002.69 2.68 2.69 2.69 0 002.69-2.68 2.12 2.12 0 000-.44zm5.7-1h9.05a.52.52 0 00.46-.28.48.48 0 000-.51 18.87 18.87 0 01-3.65-11.13v-.33a8.92 8.92 0 00-7.64-8.79.5.5 0 01-.43-.49v-1.9A.86.86 0 0013.7 1a.82.82 0 00-.6.22.8.8 0 00-.25.59v2a.5.5 0 01-.43.49 8.91 8.91 0 00-7.69 8.74v.33A18.88 18.88 0 011.07 24.5a.48.48 0 000 .51.52.52 0 00.46.28z"/><path d="M21.97 9.82a4 4 0 004-4 4 4 0 00-4-4 4 4 0 00-4 4 4 4 0 004 4" class="whats-new__icon--alert"/></svg>